<svg xmlns="http://www.w3.org/2000/svg" viewBox="0 0 13 15"><path d="M11.727 5.834a.423.423 0 00-.309.383c-.065 1.048-.586 1.996-1.417 2.562.7-3.627-1.125-7.27-4.53-8.75a.46.46 0 00-.39.033.414.414 0 00-.18.35c0 1.613-1.14 2.977-2.33 4.391C1.367 6.233.129 7.697.015 9.527A5.935 5.935 0 002.669 14.9c.147.1.326.083.473-.016.13-.1.195-.283.13-.45a4.483 4.483 0 01.163-3.193 4.23 4.23 0 00.782 2.129A3.977 3.977 0 007.427 15c.114 0 .244 0 .358-.017 1.988-.232 3.698-1.447 4.594-3.277a6.02 6.02 0 00-.195-5.689c-.098-.15-.294-.232-.457-.183z"/></svg>